<?xml version="1.0" encoding="UTF-8"?>
<svg xmlns="http://www.w3.org/2000/svg" width="512pt" height="512pt" viewBox="0 0 512 512" version="1.1">
    <g id="surface1">
        <path style=" stroke:none;fill-rule:nonzero;fill:#0dcaf0;fill-opacity:1;"
              d="M 240 120 C 240 133.253906 229.253906 144 216 144 C 202.746094 144 192 133.253906 192 120 C 192 106.746094 202.746094 96 216 96 C 229.253906 96 240 106.746094 240 120 Z M 212.449219 169.34375 L 255.007812 197.695312 L 314.335938 138.335938 C 316.773438 135.894531 320.5 135.285156 323.585938 136.832031 L 352 152 L 352 224 C 352 232.835938 344.835938 240 336 240 L 176 240 C 167.164062 240 160 232.835938 160 224 L 160 208 C 160 208 209.28125 167.230469 212.449219 169.34375 Z M 160 304 C 160 295.164062 167.164062 288 176 288 L 336 288 C 344.835938 288 352 295.164062 352 304 C 352 312.835938 344.835938 320 336 320 L 176 320 C 167.164062 320 160 312.835938 160 304 Z M 160 368 C 160 359.164062 167.164062 352 176 352 L 240 352 C 248.835938 352 256 359.164062 256 368 C 256 376.835938 248.835938 384 240 384 L 176 384 C 167.164062 384 160 376.835938 160 368 Z M 160 368 "/>
        <path style=" stroke:none;fill-rule:nonzero;fill:#0dcaf0;fill-opacity:1;"
              d="M 96 0 L 416 0 C 451.347656 0 480 28.652344 480 64 L 480 448 C 480 483.347656 451.347656 512 416 512 L 96 512 C 60.652344 512 32 483.347656 32 448 L 32 416 L 64 416 L 64 448 C 64 465.671875 78.328125 480 96 480 L 416 480 C 433.671875 480 448 465.671875 448 448 L 448 64 C 448 46.328125 433.671875 32 416 32 L 96 32 C 78.328125 32 64 46.328125 64 64 L 64 96 L 32 96 L 32 64 C 32 28.652344 60.652344 0 96 0 Z M 96 0 "/>
        <path style=" stroke:none;fill-rule:nonzero;fill:#0dcaf0;fill-opacity:1;"
              d="M 32 160 L 32 144 C 32 135.164062 39.164062 128 48 128 C 56.835938 128 64 135.164062 64 144 L 64 160 L 80 160 C 88.835938 160 96 167.164062 96 176 C 96 184.835938 88.835938 192 80 192 L 16 192 C 7.164062 192 0 184.835938 0 176 C 0 167.164062 7.164062 160 16 160 Z M 32 256 L 32 240 C 32 231.164062 39.164062 224 48 224 C 56.835938 224 64 231.164062 64 240 L 64 256 L 80 256 C 88.835938 256 96 263.164062 96 272 C 96 280.835938 88.835938 288 80 288 L 16 288 C 7.164062 288 0 280.835938 0 272 C 0 263.164062 7.164062 256 16 256 Z M 32 352 L 32 336 C 32 327.164062 39.164062 320 48 320 C 56.835938 320 64 327.164062 64 336 L 64 352 L 80 352 C 88.835938 352 96 359.164062 96 368 C 96 376.835938 88.835938 384 80 384 L 16 384 C 7.164062 384 0 376.835938 0 368 C 0 359.164062 7.164062 352 16 352 Z M 32 352 "/>
    </g>
</svg>
