<svg xmlns="http://www.w3.org/2000/svg"><symbol fill="currentColor" class="bi bi-arrow-left-short" viewBox="0 0 16 16" id="arrow-left-short"><path fill-rule="evenodd" d="M12 8a.5.5 0 01-.5.5H5.707l2.147 2.146a.5.5 0 01-.708.708l-3-3a.5.5 0 010-.708l3-3a.5.5 0 11.708.708L5.707 7.5H11.5a.5.5 0 01.5.5z"/></symbol><symbol fill="currentColor" class="bi bi-arrow-right-short" viewBox="0 0 16 16" id="arrow-right-short"><path fill-rule="evenodd" d="M4 8a.5.5 0 01.5-.5h5.793L8.146 5.354a.5.5 0 11.708-.708l3 3a.5.5 0 010 .708l-3 3a.5.5 0 01-.708-.708L10.293 8.5H4.5A.5.5 0 014 8z"/></symbol><symbol fill="currentColor" class="bi bi-journal-richtext" viewBox="0 0 16 16" id="journal-richtext"><path d="M7.5 3.75a.75.75 0 11-1.5 0 .75.75 0 011.5 0zm-.861 1.542l1.33.886 1.854-1.855a.25.25 0 01.289-.047L11 4.75V7a.5.5 0 01-.5.5h-5A.5.5 0 015 7v-.5s1.54-1.274 1.639-1.208zM5 9.5a.5.5 0 01.5-.5h5a.5.5 0 010 1h-5a.5.5 0 01-.5-.5zm0 2a.5.5 0 01.5-.5h2a.5.5 0 010 1h-2a.5.5 0 01-.5-.5z"/><path d="M3 0h10a2 2 0 012 2v12a2 2 0 01-2 2H3a2 2 0 01-2-2v-1h1v1a1 1 0 001 1h10a1 1 0 001-1V2a1 1 0 00-1-1H3a1 1 0 00-1 1v1H1V2a2 2 0 012-2z"/><path d="M1 5v-.5a.5.5 0 011 0V5h.5a.5.5 0 010 1h-2a.5.5 0 010-1H1zm0 3v-.5a.5.5 0 011 0V8h.5a.5.5 0 010 1h-2a.5.5 0 010-1H1zm0 3v-.5a.5.5 0 011 0v.5h.5a.5.5 0 010 1h-2a.5.5 0 010-1H1z"/></symbol><symbol fill="currentColor" class="bi bi-moon-fill" viewBox="0 0 16 16" id="moon-fill"><path d="M6 .278a.768.768 0 01.08.858 7.208 7.208 0 00-.878 3.46c0 4.021 3.278 7.277 7.318 7.277.527 0 1.04-.055 1.533-.16a.787.787 0 01.81.316.733.733 0 01-.031.893A8.349 8.349 0 018.344 16C3.734 16 0 12.286 0 7.71 0 4.266 2.114 1.312 5.124.06A.752.752 0 016 .278z"/></symbol><symbol fill="currentColor" class="bi bi-sun-fill" viewBox="0 0 16 16" id="sun-fill"><path d="M8 12a4 4 0 100-8 4 4 0 000 8zM8 0a.5.5 0 01.5.5v2a.5.5 0 01-1 0v-2A.5.5 0 018 0zm0 13a.5.5 0 01.5.5v2a.5.5 0 01-1 0v-2A.5.5 0 018 13zm8-5a.5.5 0 01-.5.5h-2a.5.5 0 010-1h2a.5.5 0 01.5.5zM3 8a.5.5 0 01-.5.5h-2a.5.5 0 010-1h2A.5.5 0 013 8zm10.657-5.657a.5.5 0 010 .707l-1.414 1.415a.5.5 0 11-.707-.708l1.414-1.414a.5.5 0 01.707 0zm-9.193 9.193a.5.5 0 010 .707L3.05 13.657a.5.5 0 01-.707-.707l1.414-1.414a.5.5 0 01.707 0zm9.193 2.121a.5.5 0 01-.707 0l-1.414-1.414a.5.5 0 01.707-.707l1.414 1.414a.5.5 0 010 .707zM4.464 4.465a.5.5 0 01-.707 0L2.343 3.05a.5.5 0 11.707-.707l1.414 1.414a.5.5 0 010 .708z"/></symbol><symbol fill="currentColor" class="bi bi-moon" viewBox="0 0 16 16" id="moon"><path d="M6 .278a.768.768 0 01.08.858 7.208 7.208 0 00-.878 3.46c0 4.021 3.278 7.277 7.318 7.277.527 0 1.04-.055 1.533-.16a.787.787 0 01.81.316.733.733 0 01-.031.893A8.349 8.349 0 018.344 16C3.734 16 0 12.286 0 7.71 0 4.266 2.114 1.312 5.124.06A.752.752 0 016 .278zM4.858 1.311A7.269 7.269 0 001.025 7.71c0 4.02 3.279 7.276 7.319 7.276a7.316 7.316 0 005.205-2.162c-.337.042-.68.063-1.029.063-4.61 0-8.343-3.714-8.343-8.29 0-1.167.242-2.278.681-3.286z"/></symbol><symbol fill="currentColor" class="bi bi-globe" viewBox="0 0 16 16" id="globe"><path d="M0 8a8 8 0 1116 0A8 8 0 010 8zm7.5-6.923c-.67.204-1.335.82-1.887 1.855A7.97 7.97 0 005.145 4H7.5V1.077zM4.09 4a9.267 9.267 0 01.64-1.539 6.7 6.7 0 01.597-.933A7.025 7.025 0 002.255 4H4.09zm-.582 3.5c.03-.877.138-1.718.312-2.5H1.674a6.958 6.958 0 00-.656 2.5h2.49zM4.847 5a12.5 12.5 0 00-.338 2.5H7.5V5H4.847zM8.5 5v2.5h2.99a12.495 12.495 0 00-.337-2.5H8.5zM4.51 8.5a12.5 12.5 0 00.337 2.5H7.5V8.5H4.51zm3.99 0V11h2.653c.187-.765.306-1.608.338-2.5H8.5zM5.145 12c.138.386.295.744.468 1.068.552 1.035 1.218 1.65 1.887 1.855V12H5.145zm.182 2.472a6.696 6.696 0 01-.597-.933A9.268 9.268 0 014.09 12H2.255a7.024 7.024 0 003.072 2.472zM3.82 11a13.652 13.652 0 01-.312-2.5h-2.49c.062.89.291 1.733.656 2.5H3.82zm6.853 3.472A7.024 7.024 0 0013.745 12H11.91a9.27 9.27 0 01-.64 1.539 6.688 6.688 0 01-.597.933zM8.5 12v2.923c.67-.204 1.335-.82 1.887-1.855.173-.324.33-.682.468-1.068H8.5zm3.68-1h2.146c.365-.767.594-1.61.656-2.5h-2.49a13.65 13.65 0 01-.312 2.5zm2.802-3.5a6.959 6.959 0 00-.656-2.5H12.18c.174.782.282 1.623.312 2.5h2.49zM11.27 2.461c.247.464.462.98.64 1.539h1.835a7.024 7.024 0 00-3.072-2.472c.218.284.418.598.597.933zM10.855 4a7.966 7.966 0 00-.468-1.068C9.835 1.897 9.17 1.282 8.5 1.077V4h2.355z"/></symbol><symbol fill="currentColor" class="bi bi-search" viewBox="0 0 16 16" id="search"><path d="M11.742 10.344a6.5 6.5 0 10-1.397 1.398h-.001c.03.04.062.078.098.115l3.85 3.85a1 1 0 001.415-1.414l-3.85-3.85a1.007 1.007 0 00-.115-.1zM12 6.5a5.5 5.5 0 11-11 0 5.5 5.5 0 0111 0z"/></symbol><symbol fill="currentColor" class="bi bi-funnel" viewBox="0 0 16 16" id="funnel"><path d="M1.5 1.5A.5.5 0 012 1h12a.5.5 0 01.5.5v2a.5.5 0 01-.128.334L10 8.692V13.5a.5.5 0 01-.342.474l-3 1A.5.5 0 016 14.5V8.692L1.628 3.834A.5.5 0 011.5 3.5v-2zm1 .5v1.308l4.372 4.858A.5.5 0 017 8.5v5.306l2-.666V8.5a.5.5 0 01.128-.334L13.5 3.308V2h-11z"/></symbol><symbol fill="currentColor" class="bi bi-battery-half" viewBox="0 0 16 16" id="battery-half"><path d="M2 6h5v4H2V6z"/><path d="M2 4a2 2 0 00-2 2v4a2 2 0 002 2h10a2 2 0 002-2V6a2 2 0 00-2-2H2zm10 1a1 1 0 011 1v4a1 1 0 01-1 1H2a1 1 0 01-1-1V6a1 1 0 011-1h10zm4 3a1.5 1.5 0 01-1.5 1.5v-3A1.5 1.5 0 0116 8z"/></symbol><symbol fill="currentColor" class="bi bi-layout-wtf" viewBox="0 0 16 16" id="layout-wtf"><path d="M5 1v8H1V1h4zM1 0a1 1 0 00-1 1v8a1 1 0 001 1h4a1 1 0 001-1V1a1 1 0 00-1-1H1zm13 2v5H9V2h5zM9 1a1 1 0 00-1 1v5a1 1 0 001 1h5a1 1 0 001-1V2a1 1 0 00-1-1H9zM5 13v2H3v-2h2zm-2-1a1 1 0 00-1 1v2a1 1 0 001 1h2a1 1 0 001-1v-2a1 1 0 00-1-1H3zm12-1v2H9v-2h6zm-6-1a1 1 0 00-1 1v2a1 1 0 001 1h6a1 1 0 001-1v-2a1 1 0 00-1-1H9z"/></symbol><symbol fill="currentColor" class="bi bi-alarm" viewBox="0 0 16 16" id="alarm"><path d="M8.5 5.5a.5.5 0 00-1 0v3.362l-1.429 2.38a.5.5 0 10.858.515l1.5-2.5A.5.5 0 008.5 9V5.5z"/><path d="M6.5 0a.5.5 0 000 1H7v1.07a7.001 7.001 0 00-3.273 12.474l-.602.602a.5.5 0 00.707.708l.746-.746A6.97 6.97 0 008 16a6.97 6.97 0 003.422-.892l.746.746a.5.5 0 00.707-.708l-.601-.602A7.001 7.001 0 009 2.07V1h.5a.5.5 0 000-1h-3zm1.038 3.018a6.093 6.093 0 01.924 0 6 6 0 11-.924 0zM0 3.5c0 .753.333 1.429.86 1.887A8.035 8.035 0 014.387 1.86 2.5 2.5 0 000 3.5zM13.5 1c-.753 0-1.429.333-1.887.86a8.035 8.035 0 013.527 3.527A2.5 2.5 0 0013.5 1z"/></symbol><symbol fill="currentColor" class="bi bi-clock-fill" viewBox="0 0 16 16" id="clock-fill"><path d="M16 8A8 8 0 110 8a8 8 0 0116 0zM8 3.5a.5.5 0 00-1 0V9a.5.5 0 00.252.434l3.5 2a.5.5 0 00.496-.868L8 8.71V3.5z"/></symbol><symbol fill="currentColor" class="bi bi-link-45deg" viewBox="0 0 16 16" id="link-45deg"><path d="M4.715 6.542L3.343 7.914a3 3 0 104.243 4.243l1.828-1.829A3 3 0 008.586 5.5L8 6.086a1.002 1.002 0 00-.154.199 2 2 0 01.861 3.337L6.88 11.45a2 2 0 11-2.83-2.83l.793-.792a4.018 4.018 0 01-.128-1.287z"/><path d="M6.586 4.672A3 3 0 007.414 9.5l.775-.776a2 2 0 01-.896-3.346L9.12 3.55a2 2 0 112.83 2.83l-.793.792c.112.42.155.855.128 1.287l1.372-1.372a3 3 0 10-4.243-4.243L6.586 4.672z"/></symbol><symbol fill="currentColor" class="bi bi-cloud-arrow-down-fill" viewBox="0 0 16 16" id="cloud-arrow-down-fill"><path d="M8 2a5.53 5.53 0 00-3.594 1.342c-.766.66-1.321 1.52-1.464 2.383C1.266 6.095 0 7.555 0 9.318 0 11.366 1.708 13 3.781 13h8.906C14.502 13 16 11.57 16 9.773c0-1.636-1.242-2.969-2.834-3.194C12.923 3.999 10.69 2 8 2zm2.354 6.854l-2 2a.5.5 0 01-.708 0l-2-2a.5.5 0 11.708-.708L7.5 9.293V5.5a.5.5 0 011 0v3.793l1.146-1.147a.5.5 0 01.708.708z"/></symbol><symbol fill="currentColor" class="bi bi-check-square-fill" viewBox="0 0 16 16" id="check-square-fill"><path d="M2 0a2 2 0 00-2 2v12a2 2 0 002 2h12a2 2 0 002-2V2a2 2 0 00-2-2H2zm10.03 4.97a.75.75 0 01.011 1.05l-3.992 4.99a.75.75 0 01-1.08.02L4.324 8.384a.75.75 0 111.06-1.06l2.094 2.093 3.473-4.425a.75.75 0 011.08-.022z"/></symbol><symbol fill="currentColor" class="bi bi-x" viewBox="0 0 16 16" id="x"><path d="M4.646 4.646a.5.5 0 01.708 0L8 7.293l2.646-2.647a.5.5 0 01.708.708L8.707 8l2.647 2.646a.5.5 0 01-.708.708L8 8.707l-2.646 2.647a.5.5 0 01-.708-.708L7.293 8 4.646 5.354a.5.5 0 010-.708z"/></symbol><symbol fill="currentColor" class="bi bi-arrow-down" viewBox="0 0 16 16" id="arrow-down"><path fill-rule="evenodd" d="M8 1a.5.5 0 01.5.5v11.793l3.146-3.147a.5.5 0 01.708.708l-4 4a.5.5 0 01-.708 0l-4-4a.5.5 0 01.708-.708L7.5 13.293V1.5A.5.5 0 018 1z"/></symbol><symbol fill="currentColor" class="bi bi-arrow-up" viewBox="0 0 16 16" id="arrow-up"><path fill-rule="evenodd" d="M8 15a.5.5 0 00.5-.5V2.707l3.146 3.147a.5.5 0 00.708-.708l-4-4a.5.5 0 00-.708 0l-4 4a.5.5 0 10.708.708L7.5 2.707V14.5a.5.5 0 00.5.5z"/></symbol><symbol fill="currentColor" class="bi bi-arrow-left" viewBox="0 0 16 16" id="arrow-left"><path fill-rule="evenodd" d="M15 8a.5.5 0 00-.5-.5H2.707l3.147-3.146a.5.5 0 10-.708-.708l-4 4a.5.5 0 000 .708l4 4a.5.5 0 00.708-.708L2.707 8.5H14.5A.5.5 0 0015 8z"/></symbol><symbol fill="currentColor" class="bi bi-x-circle-fill" viewBox="0 0 16 16" id="x-circle-fill"><path d="M16 8A8 8 0 110 8a8 8 0 0116 0zM5.354 4.646a.5.5 0 10-.708.708L7.293 8l-2.647 2.646a.5.5 0 00.708.708L8 8.707l2.646 2.647a.5.5 0 00.708-.708L8.707 8l2.647-2.646a.5.5 0 00-.708-.708L8 7.293 5.354 4.646z"/></symbol><symbol fill="currentColor" class="bi bi-bar-chart" viewBox="0 0 16 16" id="bar-chart"><path d="M4 11H2v3h2v-3zm5-4H7v7h2V7zm5-5v12h-2V2h2zm-2-1a1 1 0 00-1 1v12a1 1 0 001 1h2a1 1 0 001-1V2a1 1 0 00-1-1h-2zM6 7a1 1 0 011-1h2a1 1 0 011 1v7a1 1 0 01-1 1H7a1 1 0 01-1-1V7zm-5 4a1 1 0 011-1h2a1 1 0 011 1v3a1 1 0 01-1 1H2a1 1 0 01-1-1v-3z"/></symbol><symbol fill="currentColor" class="bi bi-star" viewBox="0 0 16 16" id="star"><path d="M2.866 14.85c-.078.444.36.791.746.593l4.39-2.256 4.389 2.256c.386.198.824-.149.746-.592l-.83-4.73 3.522-3.356c.33-.314.16-.888-.282-.95l-4.898-.696L8.465.792a.513.513 0 00-.927 0L5.354 5.12l-4.898.696c-.441.062-.612.636-.283.95l3.523 3.356-.83 4.73zm4.905-2.767l-3.686 1.894.694-3.957a.565.565 0 00-.163-.505L1.71 6.745l4.052-.576a.525.525 0 00.393-.288L8 2.223l1.847 3.658a.525.525 0 00.393.288l4.052.575-2.906 2.77a.565.565 0 00-.163.506l.694 3.957-3.686-1.894a.503.503 0 00-.461 0z"/></symbol><symbol fill="currentColor" class="bi bi-star-fill" viewBox="0 0 16 16" id="star-fill"><path d="M3.612 15.443c-.386.198-.824-.149-.746-.592l.83-4.73L.173 6.765c-.329-.314-.158-.888.283-.95l4.898-.696L7.538.792c.197-.39.73-.39.927 0l2.184 4.327 4.898.696c.441.062.612.636.282.95l-3.522 3.356.83 4.73c.078.443-.36.79-.746.592L8 13.187l-4.389 2.256z"/></symbol><symbol fill="currentColor" class="bi bi-star-half" viewBox="0 0 16 16" id="star-half"><path d="M5.354 5.119L7.538.792A.516.516 0 018 .5c.183 0 .366.097.465.292l2.184 4.327 4.898.696A.537.537 0 0116 6.32a.548.548 0 01-.17.445l-3.523 3.356.83 4.73c.078.443-.36.79-.746.592L8 13.187l-4.389 2.256a.52.52 0 01-.146.05c-.342.06-.668-.254-.6-.642l.83-4.73L.173 6.765a.55.55 0 01-.172-.403.58.58 0 01.085-.302.513.513 0 01.37-.245l4.898-.696zM8 12.027a.5.5 0 01.232.056l3.686 1.894-.694-3.957a.565.565 0 01.162-.505l2.907-2.77-4.052-.576a.525.525 0 01-.393-.288L8.001 2.223 8 2.226v9.8z"/></symbol><symbol fill="currentColor" class="bi bi-people" viewBox="0 0 16 16" id="people"><path d="M15 14s1 0 1-1-1-4-5-4-5 3-5 4 1 1 1 1h8zm-7.978-1A.261.261 0 017 12.996c.001-.264.167-1.03.76-1.72C8.312 10.629 9.282 10 11 10c1.717 0 2.687.63 3.24 1.276.593.69.758 1.457.76 1.72l-.008.002a.274.274 0 01-.014.002H7.022zM11 7a2 2 0 100-4 2 2 0 000 4zm3-2a3 3 0 11-6 0 3 3 0 016 0zM6.936 9.28a5.88 5.88 0 00-1.23-.247A7.35 7.35 0 005 9c-4 0-5 3-5 4 0 .667.333 1 1 1h4.216A2.238 2.238 0 015 13c0-1.01.377-2.042 1.09-2.904.243-.294.526-.569.846-.816zM4.92 10A5.493 5.493 0 004 13H1c0-.26.164-1.03.76-1.724.545-.636 1.492-1.256 3.16-1.275zM1.5 5.5a3 3 0 116 0 3 3 0 01-6 0zm3-2a2 2 0 100 4 2 2 0 000-4z"/></symbol><symbol fill="currentColor" class="bi bi-pencil" viewBox="0 0 16 16" id="pencil"><path d="M12.146.146a.5.5 0 01.708 0l3 3a.5.5 0 010 .708l-10 10a.5.5 0 01-.168.11l-5 2a.5.5 0 01-.65-.65l2-5a.5.5 0 01.11-.168l10-10zM11.207 2.5L13.5 4.793 14.793 3.5 12.5 1.207 11.207 2.5zm1.586 3L10.5 3.207 4 9.707V10h.5a.5.5 0 01.5.5v.5h.5a.5.5 0 01.5.5v.5h.293l6.5-6.5zm-9.761 5.175l-.106.106-1.528 3.821 3.821-1.528.106-.106A.5.5 0 015 12.5V12h-.5a.5.5 0 01-.5-.5V11h-.5a.5.5 0 01-.468-.325z"/></symbol><symbol fill="currentColor" class="bi bi-three-dots" viewBox="0 0 16 16" id="three-dots"><path d="M3 9.5a1.5 1.5 0 110-3 1.5 1.5 0 010 3zm5 0a1.5 1.5 0 110-3 1.5 1.5 0 010 3zm5 0a1.5 1.5 0 110-3 1.5 1.5 0 010 3z"/></symbol><symbol fill="currentColor" class="bi bi-trash" viewBox="0 0 16 16" id="trash"><path d="M5.5 5.5A.5.5 0 016 6v6a.5.5 0 01-1 0V6a.5.5 0 01.5-.5zm2.5 0a.5.5 0 01.5.5v6a.5.5 0 01-1 0V6a.5.5 0 01.5-.5zm3 .5a.5.5 0 00-1 0v6a.5.5 0 001 0V6z"/><path fill-rule="evenodd" d="M14.5 3a1 1 0 01-1 1H13v9a2 2 0 01-2 2H5a2 2 0 01-2-2V4h-.5a1 1 0 01-1-1V2a1 1 0 011-1H6a1 1 0 011-1h2a1 1 0 011 1h3.5a1 1 0 011 1v1zM4.118 4L4 4.059V13a1 1 0 001 1h6a1 1 0 001-1V4.059L11.882 4H4.118zM2.5 3V2h11v1h-11z"/></symbol><symbol fill="currentColor" class="bi bi-plus-square" viewBox="0 0 16 16" id="plus-square"><path d="M14 1a1 1 0 011 1v12a1 1 0 01-1 1H2a1 1 0 01-1-1V2a1 1 0 011-1h12zM2 0a2 2 0 00-2 2v12a2 2 0 002 2h12a2 2 0 002-2V2a2 2 0 00-2-2H2z"/><path d="M8 4a.5.5 0 01.5.5v3h3a.5.5 0 010 1h-3v3a.5.5 0 01-1 0v-3h-3a.5.5 0 010-1h3v-3A.5.5 0 018 4z"/></symbol><symbol fill="currentColor" class="bi bi-check" viewBox="0 0 16 16" id="check"><path d="M10.97 4.97a.75.75 0 011.07 1.05l-3.99 4.99a.75.75 0 01-1.08.02L4.324 8.384a.75.75 0 111.06-1.06l2.094 2.093 3.473-4.425a.267.267 0 01.02-.022z"/></symbol></svg>